<svg xmlns="http://www.w3.org/2000/svg" width="200" height="200"><g stroke-linecap="round"><g transform="translate(-229.572 -439.772)" fill="none" stroke="#000"><path d="M275.312 488.734a18.443 18.444 0 0 1 18.43 18.228 18.443 18.444 0 0 1-18 18.654 18.443 18.444 0 0 1-18.874-17.767 18.443 18.444 0 0 1 17.532-19.093" stroke-width="4.022"/><path d="M275.283 525.8v48.205" stroke-width="3.724"/><path d="M274.154 576.424l-6.53 55.067M275.353 575.366l27.696-1.69.633 21.99M262.187 586.73l12.401-44.536M306.868 561.735l-31.194-19.54" stroke-width="4.022"/><rect width="29.254" height="31.082" x="300.559" y="600.069" ry="0" stroke-width="7.484"/></g><g transform="translate(-262.272 -443.718)" fill="none" stroke="#000"><path d="M409.307 459.417a18.443 18.444 0 0 1 18.43 18.228 18.443 18.444 0 0 1-18 18.653 18.443 18.444 0 0 1-18.874-17.767 18.443 18.444 0 0 1 17.532-19.092" stroke-width="4.022"/><path d="M409.278 496.483v48.205" stroke-width="3.724"/><path d="M408.712 547.107l-6.529 55.067M396.182 557.412l12.401-44.535M440.863 532.417l-31.194-19.54" stroke-width="4.022"/><rect ry="0" y="604.015" x="395.277" height="31.082" width="29.254" stroke-width="7.484"/><path d="M409.889 547.107l6.529 55.067" stroke-width="4.022"/></g><path d="M89.955 83.975h15.015l.198-7.507 11.656 14.225-11.656 14.62v-7.31H90.153l-.198-14.028z" fill="#aaa" stroke="#aaa" stroke-width="5.256" stroke-linejoin="round"/></g></svg>
