<svg xmlns="http://www.w3.org/2000/svg" width="200" height="200"><g stroke-linecap="round"><g fill="none" stroke="#000"><path d="M127.876 27.214a18.443 18.444 0 0 1 18.43 18.229 18.443 18.444 0 0 1-17.999 18.653 18.443 18.444 0 0 1-18.874-17.767 18.443 18.444 0 0 1 17.532-19.093" stroke-width="4.022"/><path d="M127.847 64.28v48.206" stroke-width="3.724"/><path d="M126.718 114.905l-23.443 51.12M127.918 113.847l23.443 51.12M107.61 22.412l-7.424 34.393 26.967 23.87M147.736 22.6l7.425 34.393-26.967 23.87" stroke-width="4.022"/><g><path d="M57.214 52.021a18.443 18.444 0 0 1 18.43 18.228 18.443 18.444 0 0 1-17.999 18.654 18.443 18.444 0 0 1-18.874-17.767 18.443 18.444 0 0 1 17.532-19.093" stroke-width="4.022"/><path d="M57.185 89.088v48.205" stroke-width="3.724"/><path d="M56.92 139.679L42.31 193.43M57.256 138.654l13.858 55.63M35.115 139.594l21.564-44.077M79.35 139.594L57.786 95.517" stroke-width="4.022"/></g></g><path d="M82.71 99.569h15.015l.198-7.508 11.656 14.225-11.656 14.62v-7.31H82.908L82.71 99.57z" fill="#aaa" stroke="#aaa" stroke-width="5.256" stroke-linejoin="round"/></g></svg>
