<svg xmlns="http://www.w3.org/2000/svg" width="200" height="200"><g stroke-linecap="round"><g fill="none" stroke="#000"><path d="M163.535 33.936a18.443 18.444 76.306 0 1-13.347 22.221 18.443 18.444 76.306 0 1-22.384-13.071 18.443 18.444 76.306 0 1 12.793-22.544 18.443 18.444 76.306 0 1 22.701 12.514" stroke-width="4.022"/><path d="M127.515 42.682L80.681 54.094" stroke-width="3.724"/><path d="M79.375 54.485L35.258 89.363M135.376 100.775l-11.19-55.115M112.91 99.271l11.19-55.114M34.918 98.708l.103-8.508" stroke-width="4.022"/></g><g fill="none" stroke="#000"><path d="M175.882 144.528a18.443 18.444-88.775 0 1-18.618 18.036A18.443 18.444-88.775 0 1 139 144.171a18.443 18.444-88.775 0 1 18.166-18.49 18.443 18.444-88.775 0 1 18.714 17.936" stroke-width="4.022"/><path d="M138.825 143.707l-48.194-1.03" stroke-width="3.724"/><path d="M89.27 142.718l-51.61 22.344M122.069 176.682l-14.099-25.438 26.871-5.517M34.926 174.004l2.29-8.194" stroke-width="4.022"/></g><path d="M93.52 92.938v15.015l7.508.198-14.225 11.656-14.62-11.656h7.31V93.135l14.027-.197z" fill="#aaa" stroke="#aaa" stroke-width="5.256" stroke-linejoin="round"/></g></svg>
