<svg xmlns="http://www.w3.org/2000/svg" width="200" height="200"><g stroke-linecap="round"><g fill="none" stroke="#000"><path d="M173.431 29.074a18.443 18.444-88.775 0 1-18.618 18.036 18.443 18.444-88.775 0 1-18.264-18.394 18.443 18.444-88.775 0 1 18.166-18.49 18.443 18.444-88.775 0 1 18.714 17.936" stroke-width="4.022"/><path d="M136.374 28.252l-48.194-1.03" stroke-width="3.724"/><path d="M86.818 27.263l-51.61 22.345M119.617 61.228L105.52 35.79l26.871-5.518M32.475 58.55l2.29-8.195" stroke-width="4.022"/></g><g fill="none" stroke="#000"><path d="M161.084 121.913a18.443 18.444 76.306 0 1-13.347 22.221 18.443 18.444 76.306 0 1-22.385-13.071 18.443 18.444 76.306 0 1 12.794-22.544 18.443 18.444 76.306 0 1 22.7 12.513" stroke-width="4.022"/><path d="M125.064 130.66L78.23 142.07" stroke-width="3.724"/><path d="M76.924 142.462L32.807 177.34M132.925 188.752l-11.19-55.115M120.918 131.226L132.11 76.11M32.467 186.685l.103-8.508" stroke-width="4.022"/></g><path d="M103.836 78.953v15.015l7.507.198-14.225 11.656-14.62-11.656h7.31V79.15l14.028-.197z" fill="#aaa" stroke="#aaa" stroke-width="5.256" stroke-linejoin="round"/></g></svg>
