<svg xmlns="http://www.w3.org/2000/svg" xmlns:xlink="http://www.w3.org/1999/xlink" width="793.701" height="1122.52" viewBox="0 0 744.094 1052.362" xmlns:v="https://vecta.io/nano"><style><![CDATA[.B{stroke-width:4.022}.C{stroke-width:3.724}.D{stroke-linecap:round}.E{stroke-width:5.256}.F{stroke-linejoin:round}]]></style><g fill="none" stroke="#000" class="D"><use xlink:href="#B" class="B"/><path d="M214.908 111.89v48.205" class="C"/><path d="M213.78 162.515l-29.387-10.147 6.884 29.883m-10.887-63.18l33.825 9.213m35.33-9.777l-33.825 9.213m-.304 34.23l29.387-10.147-6.884 29.883m-111.82-141.7c10.097.007 18.312 8.132 18.43 18.228a18.45 18.45 0 0 1-18 18.654c-10.095.244-18.507-7.676-18.875-17.767S115.1 40.502 125.186 40" class="B"/><path d="M126.068 77.055v48.205" class="C"/><path d="M125.803 127.645l-14.6 53.75m14.937-54.775l13.858 55.63m-36-54.7l21.564-44.077m22.67 44.077L126.67 83.484" class="B"/></g><path d="M438.746 71.83h15.015l.198-7.508 11.657 14.225-11.657 14.62v-7.3h-15.015 0l-.198-14.027z" fill="#aaa" stroke="#aaa" class="E F"/><g fill="none" stroke="#000" class="D"><use xlink:href="#B" x="87.542" y="-29.255" class="B"/><path d="M302.45 82.635v48.205" class="C"/><path d="M301.32 133.26l5.373 23.946-11.902 31.12m7.73-56.126l27.696-1.7.633 22m-41.76-16.1l-1.108-25.2 13.5-19.344m28.158.27l-13.47 14.15-13.338-14.953M186.086 247.5c4.063 9.244-.062 20.036-9.255 24.213s-20.035.186-24.326-8.954-.433-20.03 8.653-24.434 20.025-.68 24.54 8.35" class="B"/><path d="M152.152 262.403c-36.698-17.547-60.065-21.02-68.6 10.982" class="C"/><g class="B"><path d="M82.747 273.998l73.52 13.263-92.505-2.805m74.992-25.296l27.986 27.54 39.575 2.134"/><use xlink:href="#C"/></g><path d="M337.066 249.607c-20.112 10.557-35.837 11.088-48.068 3.632" class="C"/><g class="B"><path d="M287.646 253.412l-7.208 35.1-29.48-.245m89.332 4.273l-11.855-38.92"/><use xlink:href="#C" x="-7.602" y="127.103"/></g><path d="M331.576 343.36c-22.875-17.078-37.52-5.752-48.068 3.632" class="C"/><path d="M282.156 347.164l-7.208 35.1-29.48-.245m97.777.47L331.4 343.56" class="B"/></g><path d="M318.468 290.397v15.015l7.508.198-14.225 11.657-14.62-11.657h7.3v-15.015l14.027-.198z" fill="#aaa" stroke="#aaa" class="E F"/><g fill="none" stroke="#000" class="D"><use xlink:href="#D" class="B"/><path d="M507.676 244.54c-28.547-49.5-67.15-55.905-77.63 28.97" class="C"/><g class="B"><path d="M528.636 287.883c-14.937-11.488-20.83-26.455-21.146-43.565m-70.174 37.58l-7.2-8.092"/><use xlink:href="#D" x="-361.068" y="205.238"/></g><path d="M142.384 447.667C119.51 430.59 117.1 427.134 98.54 410.335" class="C"/><g class="B"><path d="M98.454 410.508l-21.567 38.47-20.612 37.34m107.07 10.182c-17.662-17.176-14.523-32.46-21.146-48.633"/><path d="M99.3 411.148c-11.578-18.155-21.335-37.277-31.2-56.383"/><use xlink:href="#B" x="38.976" y="368.975"/></g><path d="M253.885 480.867v48.205" class="C"/><g class="B"><path d="M253.178 531.5l-52.138 38.175m52.915-39.232l27.696 8.023 10.346 32.547M233.767 422.7l13.25 27.597 6.858 39.778"/><use xlink:href="#B" x="178.336" y="342.371"/></g><path d="M393.244 454.263v48.205" class="C"/><path d="M392.538 504.887L340.4 543.062m52.915-39.234l27.696 8.023 10.346 32.547m-99.9-72.318l27.672-9.982 33.97-2.23m61.235-11.395l-27.672 9.982-33.97 2.23m192.434-88.98c-.223 10.095-8.52 18.134-18.618 18.036s-18.238-8.296-18.265-18.393a18.46 18.46 0 0 1 18.166-18.5c10.096-.16 18.437 7.843 18.714 17.936" class="B"/><path d="M548.345 362.645l-48.194-1.03" class="C"/><path d="M498.8 361.656L447.18 384m122.558 11.432l-24.622-.067-.755-30.7m-99.916 28.278l2.3-8.195" class="B"/></g><defs ><path id="B" d="M214.938 74.825c10.097.007 18.312 8.132 18.43 18.228s-7.905 18.41-18 18.654-18.507-7.676-18.875-17.767 7.447-18.6 17.532-19.093"/><path id="C" d="M367.272 230.797c.754 10.07-6.73 18.872-16.788 19.75s-18.954-6.495-19.957-16.542 6.26-19.033 16.295-20.16 19.11 6.025 20.36 16.044"/><path id="D" d="M531.548 256.98c.754 10.07-6.73 18.872-16.788 19.75s-18.954-6.495-19.957-16.542 6.26-19.033 16.294-20.16 19.11 6.025 20.36 16.044"/></defs></svg>