<svg xmlns="http://www.w3.org/2000/svg" xmlns:xlink="http://www.w3.org/1999/xlink" width="200" height="200" xmlns:v="https://vecta.io/nano"><g fill="none" stroke="#000" stroke-linecap="round"><use xlink:href="#B" stroke-width="4.022"/><path d="M126.932 52.1C106.82 62.656 91.095 63.187 78.864 55.73" stroke-width="3.724"/><g stroke-width="4.022"><path d="M77.512 55.904l-7.208 35.1-29.48-.245m89.33 4.27L118.3 56.1"/><use xlink:href="#B" x="-7.601" y="127.112"/></g><path d="M121.442 145.85c-22.875-17.078-37.52-5.752-48.068 3.632" stroke-width="3.724"/><path d="M72.022 149.656l-7.208 35.1-29.48-.245m97.776.47l-11.855-38.92" stroke-width="4.022"/></g><path d="M108.334 92.89v15.015l7.508.198-14.225 11.657-14.62-11.657h7.3V93.086l14.027-.198z" fill="#aaa" stroke="#aaa" stroke-width="5.256" stroke-linejoin="round"/><defs ><path id="B" d="M157.138 33.29c.754 10.07-6.73 18.872-16.788 19.75s-18.954-6.495-19.957-16.542 6.26-19.033 16.295-20.16 19.11 6.025 20.36 16.044"/></defs></svg>