<svg xmlns="http://www.w3.org/2000/svg" width="200" height="200"><g fill="none" stroke="#000" stroke-linecap="round"><path d="M174.364 116.23a18.443 18.444-88.775 0 1-18.618 18.036 18.443 18.444-88.775 0 1-18.265-18.394 18.443 18.444-88.775 0 1 18.166-18.49 18.443 18.444-88.775 0 1 18.714 17.936" stroke-width="4.022"/><path d="M137.306 115.408l-48.194-1.03" stroke-width="3.724"/><path d="M158.7 148.196l-24.623-.067-.755-30.7" stroke-width="4.022"/><g stroke-width="4.022"><path d="M87.75 114.42l-51.61 22.344M33.407 145.706l2.29-8.195"/></g><path d="M87.104 114.362l-56.098 9.834M26.646 115.792l4.03 7.493" stroke-width="4.022"/><path d="M133.377 114.36l-46.448-9.033" stroke-width="3.724"/></g></svg>
