<svg xmlns="http://www.w3.org/2000/svg" width="200" height="200"><g fill="none" stroke="#000" stroke-linecap="round"><path d="M26.633 116.23a18.443 18.444 88.775 0 0 18.618 18.036 18.443 18.444 88.775 0 0 18.264-18.394 18.443 18.444 88.775 0 0-18.166-18.49 18.443 18.444 88.775 0 0-18.714 17.936" stroke-width="4.022"/><path d="M63.69 115.408l48.194-1.03" stroke-width="3.724"/><path d="M42.297 148.196l24.622-.067.755-30.7" stroke-width="4.022"/><g stroke-width="4.022"><path d="M113.246 114.42l51.61 22.344M167.59 145.706l-2.29-8.195"/></g><path d="M113.892 114.362l56.098 9.834M174.35 115.792l-4.029 7.493" stroke-width="4.022"/><path d="M67.62 114.36l46.448-9.033" stroke-width="3.724"/></g></svg>
