<svg xmlns="http://www.w3.org/2000/svg" width="200" height="200"><g stroke-linecap="round"><g fill="none" stroke="#000"><path d="M132.529 72.998a18.443 18.444 0 0 1 18.43 18.228 18.443 18.444 0 0 1-18 18.654 18.443 18.444 0 0 1-18.874-17.767 18.443 18.444 0 0 1 17.532-19.093" stroke-width="4.022"/><path d="M132.5 110.064v48.205" stroke-width="3.724"/><path d="M131.37 160.688l-29.386-10.147 6.883 29.883M97.98 117.245l33.825 9.213M167.136 116.681l-33.825 9.213M133.008 160.124l29.387-10.146-6.884 29.882" stroke-width="4.022"/></g><g fill="none" stroke="#000"><path d="M43.689 38.161a18.443 18.444 0 0 1 18.43 18.228 18.443 18.444 0 0 1-18 18.654 18.443 18.444 0 0 1-18.874-17.767 18.443 18.444 0 0 1 17.532-19.093" stroke-width="4.022"/><path d="M43.66 75.228v48.204" stroke-width="3.724"/><path d="M43.394 125.818l-14.61 53.752M43.73 124.793l13.858 55.631M21.59 125.734l21.563-44.077M65.824 125.734L44.26 81.657" stroke-width="4.022"/></g><path d="M72.127 82.249h15.015l.198-7.508 11.656 14.225-11.656 14.62v-7.31H72.325l-.198-14.027z" fill="#aaa" stroke="#aaa" stroke-width="5.256" stroke-linejoin="round"/></g></svg>
